<?xml version="1.0" encoding="UTF-8" standalone="no"?>
<!-- Created with Inkscape (http://www.inkscape.org/) -->

<svg
   width="1920"
   height="1080"
   viewBox="0 0 508 285.75"
   version="1.1"
   id="svg1"
   sodipodi:docname="night sky.svg"
   inkscape:version="1.3 (0e150ed6c4, 2023-07-21)"
   xmlns:inkscape="http://www.inkscape.org/namespaces/inkscape"
   xmlns:sodipodi="http://sodipodi.sourceforge.net/DTD/sodipodi-0.dtd"
   xmlns:xlink="http://www.w3.org/1999/xlink"
   xmlns="http://www.w3.org/2000/svg"
   xmlns:svg="http://www.w3.org/2000/svg">
  <sodipodi:namedview
     id="namedview1"
     pagecolor="#ffffff"
     bordercolor="#000000"
     borderopacity="0.25"
     inkscape:showpageshadow="2"
     inkscape:pageopacity="0.0"
     inkscape:pagecheckerboard="0"
     inkscape:deskcolor="#d1d1d1"
     inkscape:document-units="mm"
     inkscape:zoom="0.33224977"
     inkscape:cx="960.12105"
     inkscape:cy="510.15836"
     inkscape:window-width="1280"
     inkscape:window-height="667"
     inkscape:window-x="-8"
     inkscape:window-y="-8"
     inkscape:window-maximized="1"
     inkscape:current-layer="layer1" />
  <defs
     id="defs1">
    <linearGradient
       id="linearGradient13"
       inkscape:collect="always">
      <stop
         style="stop-color:#ffffff;stop-opacity:0.1863354;"
         offset="0"
         id="stop13" />
      <stop
         style="stop-color:#ffffff;stop-opacity:0.09411765;"
         offset="0.36067089"
         id="stop18" />
      <stop
         style="stop-color:#ffffff;stop-opacity:0;"
         offset="1"
         id="stop14" />
    </linearGradient>
    <filter
       inkscape:collect="always"
       style="color-interpolation-filters:sRGB"
       id="filter9"
       x="-4.7147256e-06"
       y="0"
       width="1.0000094"
       height="1">
      <feGaussianBlur
         inkscape:collect="always"
         stdDeviation="0.001 0"
         id="feGaussianBlur9" />
    </filter>
    <linearGradient
       inkscape:collect="always"
       xlink:href="#linearGradient13"
       id="linearGradient14"
       x1="254"
       y1="285.75"
       x2="254.24133"
       y2="0"
       gradientUnits="userSpaceOnUse"
       gradientTransform="translate(1.0434254,18.898813)"
       spreadMethod="pad" />
    <filter
       inkscape:collect="always"
       style="color-interpolation-filters:sRGB"
       id="filter10"
       x="-0.0079972979"
       y="-0.014002623"
       width="1.0159946"
       height="1.0280052">
      <feGaussianBlur
         inkscape:collect="always"
         stdDeviation="1.2208988"
         id="feGaussianBlur10" />
    </filter>
    <filter
       inkscape:collect="always"
       style="color-interpolation-filters:sRGB"
       id="filter11"
       x="-0.11552968"
       y="-0.10885493"
       width="1.2310594"
       height="1.2177099">
      <feGaussianBlur
         inkscape:collect="always"
         stdDeviation="2.7565872"
         id="feGaussianBlur11" />
    </filter>
    <filter
       inkscape:collect="always"
       style="color-interpolation-filters:sRGB"
       id="filter12"
       x="-0.11552968"
       y="-0.10885493"
       width="1.2310594"
       height="1.2177099">
      <feGaussianBlur
         inkscape:collect="always"
         stdDeviation="2.7565872"
         id="feGaussianBlur12" />
    </filter>
    <filter
       inkscape:collect="always"
       style="color-interpolation-filters:sRGB"
       id="filter13"
       x="-0.11552968"
       y="-0.10885493"
       width="1.2310594"
       height="1.2177099">
      <feGaussianBlur
         inkscape:collect="always"
         stdDeviation="2.7565872"
         id="feGaussianBlur13" />
    </filter>
    <filter
       inkscape:collect="always"
       style="color-interpolation-filters:sRGB"
       id="filter14"
       x="-0.11552968"
       y="-0.10885493"
       width="1.2310594"
       height="1.2177099">
      <feGaussianBlur
         inkscape:collect="always"
         stdDeviation="2.7565872"
         id="feGaussianBlur14" />
    </filter>
    <filter
       inkscape:collect="always"
       style="color-interpolation-filters:sRGB"
       id="filter15"
       x="-0.11552968"
       y="-0.10885493"
       width="1.2310594"
       height="1.2177099">
      <feGaussianBlur
         inkscape:collect="always"
         stdDeviation="2.7565872"
         id="feGaussianBlur15" />
    </filter>
    <filter
       inkscape:collect="always"
       style="color-interpolation-filters:sRGB"
       id="filter16"
       x="-0.11552968"
       y="-0.10885493"
       width="1.2310594"
       height="1.2177099">
      <feGaussianBlur
         inkscape:collect="always"
         stdDeviation="2.7565872"
         id="feGaussianBlur16" />
    </filter>
    <filter
       inkscape:collect="always"
       style="color-interpolation-filters:sRGB"
       id="filter17"
       x="-0.11552968"
       y="-0.10885493"
       width="1.2310594"
       height="1.2177099">
      <feGaussianBlur
         inkscape:collect="always"
         stdDeviation="2.7565872"
         id="feGaussianBlur17" />
    </filter>
  </defs>
  <g
     inkscape:label="Layer 1"
     inkscape:groupmode="layer"
     id="layer1">
    <rect
       style="fill:#144356;fill-opacity:1;fill-rule:evenodd;stroke:none;stroke-width:1.59283"
       id="rect2"
       width="285.75"
       height="508"
       x="-1.7763568e-14"
       y="-508"
       transform="rotate(90)" />
    <path
       style="fill:#ffffff;fill-opacity:0.0521739;fill-rule:evenodd;stroke:none;stroke-width:0.261022"
       d="m 508.02738,285.75 c 1.04015,-20.07382 -0.0274,0 -0.0274,-59.57187 -18.39421,4.70644 -44.13655,-13.61504 -66.2984,-20.10873 -19.7866,-5.79772 -42.2926,-5.50491 -59.52158,-16.83122 -17.04268,-11.20384 -20.50741,-38.09191 -38.6286,-47.45148 -24.48334,-12.64562 -56.35352,3.284 -82.48878,-5.45062 -16.4354,-5.49285 -27.1386,-22.77263 -43.51094,-28.4507 -24.01227,-8.327659 -52.11495,2.08599 -75.94716,-6.74378 C 126.32081,95.479026 115.20733,82.012321 101.83884,72.688158 87.115598,62.419086 74.67383,46.934317 57.301311,42.415103 38.744292,37.587758 0,66.798476 0,47.470375 c 0,0 -2.5608252,20.615464 4.4865628,25.723704 12.7238602,9.222784 31.8786182,-12.091391 46.6585382,-6.751886 19.813439,7.157951 31.766948,28.705713 42.32178,46.937667 7.824209,13.5152 4.086942,32.94073 14.551319,44.53278 13.14144,14.55761 34.48864,20.29832 53.77014,23.88233 30.25805,5.62432 61.52466,-2.31014 92.21166,-4.65337 23.11686,-1.76518 47.4978,-15.2621 69.19096,-7.08212 36.97986,13.94425 53.7121,57.98986 80.61114,86.94489 8.90969,9.59069 90.38628,29.90947 26.75753,28.74563"
       id="path4"
       sodipodi:nodetypes="ccaaaaaaaasaaaaaaaac" />
    <path
       id="rect4"
       style="opacity:1;mix-blend-mode:normal;fill:url(#linearGradient14);fill-rule:evenodd;stroke:none;stroke-width:0.24;stroke-dasharray:none;stroke-opacity:1;filter:url(#filter9)"
       d="m 0,0 h 508 l 1.04343,40.159971 -16.35235,43.93973 L 477.74593,40.632439 461.85585,135.12648 445.96577,40.632439 431.02062,196.54761 414.1856,40.632439 401.13034,138.90625 382.40543,40.632439 370.29511,200.32738 350.62527,40.632439 328.49857,242.8497 313.55343,40.632439 302.01007,122.84226 287.06493,40.632439 272.93166,192.95004 255.28476,40.632439 241.28456,84.099701 223.5046,40.632439 204.91369,201.72667 191.72443,40.632439 173.94447,174.81398 159.94426,40.632439 142.64795,120.04041 128.1641,40.632439 115.10884,267.41815 96.383926,40.632439 81.438783,174.81398 64.603759,40.632439 45.878854,201.27232 32.823592,40.632439 15.043627,139.85119 0.58981053,42.52232 Z"
       sodipodi:nodetypes="cccccccccccccccccccccccccccccccccccc"
       transform="matrix(1,0,0,1.0685513,1.0583333,0)" />
  </g>
  <g
     inkscape:groupmode="layer"
     id="layer2"
     inkscape:label="stars"
     style="display:inline;opacity:0.326316"
     sodipodi:insensitive="true">
    <path
       sodipodi:type="star"
       style="opacity:1;fill:#ffffff;fill-opacity:1;fill-rule:evenodd;stroke:#000000;stroke-width:0.24;stroke-dasharray:none;stroke-opacity:1;filter:url(#filter11)"
       id="path14"
       inkscape:flatsided="false"
       sodipodi:sides="6"
       sodipodi:cx="93.466881"
       sodipodi:cy="113.37986"
       sodipodi:r1="32.083488"
       sodipodi:r2="16.041744"
       sodipodi:arg1="0.37708735"
       sodipodi:arg2="0.90068613"
       inkscape:rounded="0"
       inkscape:randomized="0"
       d="m 123.29622,125.19345 -19.86626,0.75918 -5.27928,19.16699 -10.590594,-16.82509 -19.238743,5.0115 9.275659,-17.58427 -13.959458,-14.15549 19.866253,-0.75918 5.279285,-19.166988 10.590594,16.82509 19.238744,-5.0115 -9.27566,17.584268 z"
       inkscape:transform-center-x="-0.13887216"
       inkscape:transform-center-y="0.56401557"
       transform="matrix(-0.22272973,0,0,0.22884019,78.278235,92.129356)" />
    <path
       sodipodi:type="star"
       style="opacity:1;fill:#ffffff;fill-opacity:1;fill-rule:evenodd;stroke:#000000;stroke-width:0.24;stroke-dasharray:none;stroke-opacity:1;filter:url(#filter12)"
       id="path15"
       inkscape:flatsided="false"
       sodipodi:sides="6"
       sodipodi:cx="93.466881"
       sodipodi:cy="113.37986"
       sodipodi:r1="32.083488"
       sodipodi:r2="16.041744"
       sodipodi:arg1="0.37708735"
       sodipodi:arg2="0.90068613"
       inkscape:rounded="0"
       inkscape:randomized="0"
       d="m 123.29622,125.19345 -19.86626,0.75918 -5.27928,19.16699 -10.590594,-16.82509 -19.238743,5.0115 9.275659,-17.58427 -13.959458,-14.15549 19.866253,-0.75918 5.279285,-19.166988 10.590594,16.82509 19.238744,-5.0115 -9.27566,17.584268 z"
       inkscape:transform-center-x="-0.13887216"
       inkscape:transform-center-y="-0.56401418"
       transform="matrix(-0.22272973,0,0,-0.22884019,295.80229,168.82087)" />
    <path
       sodipodi:type="star"
       style="fill:#ffffff;fill-opacity:1;fill-rule:evenodd;stroke:#000000;stroke-width:0.24;stroke-dasharray:none;stroke-opacity:1;filter:url(#filter13)"
       id="path15-5"
       inkscape:flatsided="false"
       sodipodi:sides="6"
       sodipodi:cx="93.466881"
       sodipodi:cy="113.37986"
       sodipodi:r1="32.083488"
       sodipodi:r2="16.041744"
       sodipodi:arg1="0.37708735"
       sodipodi:arg2="0.90068613"
       inkscape:rounded="0"
       inkscape:randomized="0"
       d="m 123.29622,125.19345 -19.86626,0.75918 -5.27928,19.16699 -10.590594,-16.82509 -19.238743,5.0115 9.275659,-17.58427 -13.959458,-14.15549 19.866253,-0.75918 5.279285,-19.166988 10.590594,16.82509 19.238744,-5.0115 -9.27566,17.584268 z"
       inkscape:transform-center-x="-0.13887216"
       inkscape:transform-center-y="-0.56401418"
       transform="matrix(-0.22272973,0,0,-0.22884019,314.08293,284.11868)" />
    <path
       sodipodi:type="star"
       style="opacity:1;fill:#ffffff;fill-opacity:1;fill-rule:evenodd;stroke:#000000;stroke-width:0.24;stroke-dasharray:none;stroke-opacity:1;filter:url(#filter14)"
       id="path16"
       inkscape:flatsided="false"
       sodipodi:sides="6"
       sodipodi:cx="93.466881"
       sodipodi:cy="113.37986"
       sodipodi:r1="32.083488"
       sodipodi:r2="16.041744"
       sodipodi:arg1="0.37708735"
       sodipodi:arg2="0.90068613"
       inkscape:rounded="0"
       inkscape:randomized="0"
       d="m 123.29622,125.19345 -19.86626,0.75918 -5.27928,19.16699 -10.590594,-16.82509 -19.238743,5.0115 9.275659,-17.58427 -13.959458,-14.15549 19.866253,-0.75918 5.279285,-19.166988 10.590594,16.82509 19.238744,-5.0115 -9.27566,17.584268 z"
       inkscape:transform-center-x="-0.403666"
       inkscape:transform-center-y="-0.32312276"
       transform="matrix(0.21633821,0.05297462,0.05442795,-0.22227332,207.79685,105.39529)" />
    <path
       sodipodi:type="star"
       style="opacity:1;fill:#ffffff;fill-opacity:1;fill-rule:evenodd;stroke:#000000;stroke-width:0.24;stroke-dasharray:none;stroke-opacity:1;filter:url(#filter15)"
       id="path17"
       inkscape:flatsided="false"
       sodipodi:sides="6"
       sodipodi:cx="93.466881"
       sodipodi:cy="113.37986"
       sodipodi:r1="32.083488"
       sodipodi:r2="16.041744"
       sodipodi:arg1="0.37708735"
       sodipodi:arg2="0.90068613"
       inkscape:rounded="0"
       inkscape:randomized="0"
       d="m 123.29622,125.19345 -19.86626,0.75918 -5.27928,19.16699 -10.590594,-16.82509 -19.238743,5.0115 9.275659,-17.58427 -13.959458,-14.15549 19.866253,-0.75918 5.279285,-19.166988 10.590594,16.82509 19.238744,-5.0115 -9.27566,17.584268 z"
       inkscape:transform-center-x="232.55779"
       inkscape:transform-center-y="60.863637"
       transform="matrix(-0.22142089,0.02411058,0.02477204,0.22749545,404.98556,107.49739)" />
    <path
       sodipodi:type="star"
       style="opacity:1;fill:#ffffff;fill-opacity:1;fill-rule:evenodd;stroke:#000000;stroke-width:0.24;stroke-dasharray:none;stroke-opacity:1;filter:url(#filter16)"
       id="path18"
       inkscape:flatsided="false"
       sodipodi:sides="6"
       sodipodi:cx="93.466881"
       sodipodi:cy="113.37986"
       sodipodi:r1="32.083488"
       sodipodi:r2="16.041744"
       sodipodi:arg1="0.37708735"
       sodipodi:arg2="0.90068613"
       inkscape:rounded="0"
       inkscape:randomized="0"
       d="m 123.29622,125.19345 -19.86626,0.75918 -5.27928,19.16699 -10.590594,-16.82509 -19.238743,5.0115 9.275659,-17.58427 -13.959458,-14.15549 19.866253,-0.75918 5.279285,-19.166988 10.590594,16.82509 19.238744,-5.0115 -9.27566,17.584268 z"
       inkscape:transform-center-x="-0.403666"
       inkscape:transform-center-y="-0.32312276"
       transform="matrix(0.21633821,0.05297462,0.05442795,-0.22227332,11.473919,264.39996)" />
    <path
       sodipodi:type="star"
       style="opacity:1;fill:#ffffff;fill-opacity:1;fill-rule:evenodd;stroke:#000000;stroke-width:0.24;stroke-dasharray:none;stroke-opacity:1;filter:url(#filter17)"
       id="path19"
       inkscape:flatsided="false"
       sodipodi:sides="6"
       sodipodi:cx="93.466881"
       sodipodi:cy="113.37986"
       sodipodi:r1="32.083488"
       sodipodi:r2="16.041744"
       sodipodi:arg1="0.37708735"
       sodipodi:arg2="0.90068613"
       inkscape:rounded="0"
       inkscape:randomized="0"
       d="m 123.29622,125.19345 -19.86626,0.75918 -5.27928,19.16699 -10.590594,-16.82509 -19.238743,5.0115 9.275659,-17.58427 -13.959458,-14.15549 19.866253,-0.75918 5.279285,-19.166988 10.590594,16.82509 19.238744,-5.0115 -9.27566,17.584268 z"
       inkscape:transform-center-x="-0.403666"
       inkscape:transform-center-y="-0.32312276"
       transform="matrix(0.21633821,0.05297462,0.05442795,-0.22227332,391.09991,62.243627)" />
  </g>
  <g
     inkscape:groupmode="layer"
     id="g26"
     inkscape:label="stars copy"
     transform="translate(-11.382874,-4.9980339)"
     sodipodi:insensitive="true">
    <path
       sodipodi:type="star"
       style="display:inline;opacity:1;fill:#ffffff;fill-opacity:0.638889;fill-rule:evenodd;stroke:#000000;stroke-width:0.24;stroke-dasharray:none;stroke-opacity:1"
       id="path20"
       inkscape:flatsided="false"
       sodipodi:sides="6"
       sodipodi:cx="93.466881"
       sodipodi:cy="113.37986"
       sodipodi:r1="32.083488"
       sodipodi:r2="16.041744"
       sodipodi:arg1="0.37708735"
       sodipodi:arg2="0.90068613"
       inkscape:rounded="0"
       inkscape:randomized="0"
       d="m 123.29622,125.19345 -19.86626,0.75918 -5.27928,19.16699 -10.590594,-16.82509 -19.238743,5.0115 9.275659,-17.58427 -13.959458,-14.15549 19.866253,-0.75918 5.279285,-19.166988 10.590594,16.82509 19.238744,-5.0115 -9.27566,17.584268 z"
       inkscape:transform-center-x="0.13887219"
       inkscape:transform-center-y="0.56401557"
       transform="matrix(0.22272973,0,0,0.22884019,450.07649,62.371717)" />
    <path
       sodipodi:type="star"
       style="opacity:1;fill:#ffffff;fill-opacity:0.638889;fill-rule:evenodd;stroke:#000000;stroke-width:0.24;stroke-dasharray:none;stroke-opacity:1"
       id="path21"
       inkscape:flatsided="false"
       sodipodi:sides="6"
       sodipodi:cx="93.466881"
       sodipodi:cy="113.37986"
       sodipodi:r1="32.083488"
       sodipodi:r2="16.041744"
       sodipodi:arg1="0.37708735"
       sodipodi:arg2="0.90068613"
       inkscape:rounded="0"
       inkscape:randomized="0"
       d="m 123.29622,125.19345 -19.86626,0.75918 -5.27928,19.16699 -10.590594,-16.82509 -19.238743,5.0115 9.275659,-17.58427 -13.959458,-14.15549 19.866253,-0.75918 5.279285,-19.166988 10.590594,16.82509 19.238744,-5.0115 -9.27566,17.584268 z"
       inkscape:transform-center-x="0.13887619"
       inkscape:transform-center-y="-0.56401418"
       transform="matrix(0.22272973,0,0,-0.22884019,306.06684,215.68042)" />
    <path
       sodipodi:type="star"
       style="fill:#ffffff;fill-opacity:0.638889;fill-rule:evenodd;stroke:#000000;stroke-width:0.24;stroke-dasharray:none;stroke-opacity:1"
       id="path22"
       inkscape:flatsided="false"
       sodipodi:sides="6"
       sodipodi:cx="93.466881"
       sodipodi:cy="113.37986"
       sodipodi:r1="32.083488"
       sodipodi:r2="16.041744"
       sodipodi:arg1="0.37708735"
       sodipodi:arg2="0.90068613"
       inkscape:rounded="0"
       inkscape:randomized="0"
       d="m 123.29622,125.19345 -19.86626,0.75918 -5.27928,19.16699 -10.590594,-16.82509 -19.238743,5.0115 9.275659,-17.58427 -13.959458,-14.15549 19.866253,-0.75918 5.279285,-19.166988 10.590594,16.82509 19.238744,-5.0115 -9.27566,17.584268 z"
       inkscape:transform-center-x="0.13887619"
       inkscape:transform-center-y="-0.56401418"
       transform="matrix(0.22272973,0,0,-0.22884019,164.37329,212.68042)" />
    <path
       sodipodi:type="star"
       style="opacity:1;fill:#ffffff;fill-opacity:0.638889;fill-rule:evenodd;stroke:#000000;stroke-width:0.24;stroke-dasharray:none;stroke-opacity:1"
       id="path23"
       inkscape:flatsided="false"
       sodipodi:sides="6"
       sodipodi:cx="93.466881"
       sodipodi:cy="113.37986"
       sodipodi:r1="32.083488"
       sodipodi:r2="16.041744"
       sodipodi:arg1="0.37708735"
       sodipodi:arg2="0.90068613"
       inkscape:rounded="0"
       inkscape:randomized="0"
       d="m 123.29622,125.19345 -19.86626,0.75918 -5.27928,19.16699 -10.590594,-16.82509 -19.238743,5.0115 9.275659,-17.58427 -13.959458,-14.15549 19.866253,-0.75918 5.279285,-19.166988 10.590594,16.82509 19.238744,-5.0115 -9.27566,17.584268 z"
       inkscape:transform-center-x="0.40367003"
       inkscape:transform-center-y="-0.32312276"
       transform="matrix(-0.21633821,0.05297462,-0.05442795,-0.22227332,319.9208,67.328543)" />
    <path
       sodipodi:type="star"
       style="opacity:1;fill:#ffffff;fill-opacity:0.638889;fill-rule:evenodd;stroke:#000000;stroke-width:0.24;stroke-dasharray:none;stroke-opacity:1"
       id="path24"
       inkscape:flatsided="false"
       sodipodi:sides="6"
       sodipodi:cx="93.466881"
       sodipodi:cy="113.37986"
       sodipodi:r1="32.083488"
       sodipodi:r2="16.041744"
       sodipodi:arg1="0.37708735"
       sodipodi:arg2="0.90068613"
       inkscape:rounded="0"
       inkscape:randomized="0"
       d="m 123.29622,125.19345 -19.86626,0.75918 -5.27928,19.16699 -10.590594,-16.82509 -19.238743,5.0115 9.275659,-17.58427 -13.959458,-14.15549 19.866253,-0.75918 5.279285,-19.166988 10.590594,16.82509 19.238744,-5.0115 -9.27566,17.584268 z"
       inkscape:transform-center-x="-232.55779"
       inkscape:transform-center-y="60.863637"
       transform="matrix(0.22142089,0.02411058,-0.02477204,0.22749545,108.35401,237.03566)" />
    <path
       sodipodi:type="star"
       style="opacity:1;fill:#ffffff;fill-opacity:0.638889;fill-rule:evenodd;stroke:#000000;stroke-width:0.24;stroke-dasharray:none;stroke-opacity:1"
       id="path25"
       inkscape:flatsided="false"
       sodipodi:sides="6"
       sodipodi:cx="93.466881"
       sodipodi:cy="113.37986"
       sodipodi:r1="32.083488"
       sodipodi:r2="16.041744"
       sodipodi:arg1="0.37708735"
       sodipodi:arg2="0.90068613"
       inkscape:rounded="0"
       inkscape:randomized="0"
       d="m 123.29622,125.19345 -19.86626,0.75918 -5.27928,19.16699 -10.590594,-16.82509 -19.238743,5.0115 9.275659,-17.58427 -13.959458,-14.15549 19.866253,-0.75918 5.279285,-19.166988 10.590594,16.82509 19.238744,-5.0115 -9.27566,17.584268 z"
       inkscape:transform-center-x="0.40366503"
       inkscape:transform-center-y="-0.32312276"
       transform="matrix(-0.21633821,0.05297462,-0.05442795,-0.22227332,482.26526,251.87521)" />
    <path
       sodipodi:type="star"
       style="opacity:1;fill:#ffffff;fill-opacity:0.638889;fill-rule:evenodd;stroke:#000000;stroke-width:0.24;stroke-dasharray:none;stroke-opacity:1"
       id="path26"
       inkscape:flatsided="false"
       sodipodi:sides="6"
       sodipodi:cx="93.466881"
       sodipodi:cy="113.37986"
       sodipodi:r1="32.083488"
       sodipodi:r2="16.041744"
       sodipodi:arg1="0.37708735"
       sodipodi:arg2="0.90068613"
       inkscape:rounded="0"
       inkscape:randomized="0"
       d="m 123.29622,125.19345 -19.86626,0.75918 -5.27928,19.16699 -10.590594,-16.82509 -19.238743,5.0115 9.275659,-17.58427 -13.959458,-14.15549 19.866253,-0.75918 5.279285,-19.166988 10.590594,16.82509 19.238744,-5.0115 -9.27566,17.584268 z"
       inkscape:transform-center-x="0.40367003"
       inkscape:transform-center-y="-0.32312276"
       transform="matrix(-0.21633821,0.05297462,-0.05442795,-0.22227332,99.789054,65.975365)" />
  </g>
  <g
     inkscape:groupmode="layer"
     id="layer3"
     inkscape:label="stars copy 1"
     style="mix-blend-mode:normal;fill:#ffffff;fill-opacity:0.265873;filter:url(#filter10)"
     sodipodi:insensitive="true">
    <circle
       style="opacity:1;fill:#ffffff;fill-opacity:0.265873;fill-rule:evenodd;stroke:#000000;stroke-width:0.033363"
       id="path1"
       cx="124.87148"
       cy="-36.667606"
       transform="scale(1,-1)"
       r="2.9833186" />
    <circle
       style="opacity:1;fill:#ffffff;fill-opacity:0.265873;fill-rule:evenodd;stroke:#000000;stroke-width:0.033363"
       id="circle1"
       cx="124.87148"
       cy="-36.667606"
       transform="scale(1,-1)"
       r="2.9833186" />
    <circle
       style="opacity:1;fill:#ffffff;fill-opacity:0.265873;fill-rule:evenodd;stroke:#000000;stroke-width:0.033363"
       id="circle2"
       cx="124.87148"
       cy="-36.667606"
       transform="scale(1,-1)"
       r="2.9833186" />
    <circle
       style="opacity:1;fill:#ffffff;fill-opacity:0.265873;fill-rule:evenodd;stroke:#000000;stroke-width:0.033363"
       id="circle3"
       cx="124.87148"
       cy="-36.667606"
       transform="scale(1,-1)"
       r="2.9833186" />
    <circle
       style="opacity:1;fill:#ffffff;fill-opacity:0.265873;fill-rule:evenodd;stroke:#000000;stroke-width:0.033363"
       id="circle5"
       cx="324.75247"
       cy="-82.145348"
       transform="scale(1,-1)"
       r="2.9833186" />
    <circle
       style="opacity:1;fill:#ffffff;fill-opacity:0.265873;fill-rule:evenodd;stroke:#000000;stroke-width:0.033363"
       id="circle6"
       cx="171.74112"
       cy="-115.19498"
       transform="scale(1,-1)"
       r="2.9833186" />
    <circle
       style="opacity:1;fill:#ffffff;fill-opacity:0.265873;fill-rule:evenodd;stroke:#000000;stroke-width:0.033363"
       id="circle7"
       cx="354.89902"
       cy="-241.15001"
       transform="scale(1,-1)"
       r="2.9833186" />
    <circle
       style="opacity:1;fill:#ffffff;fill-opacity:0.265873;fill-rule:evenodd;stroke:#000000;stroke-width:0.033363"
       id="circle8"
       cx="197.36636"
       cy="-230.49712"
       transform="scale(1,-1)"
       r="2.9833186" />
    <circle
       style="opacity:1;fill:#ffffff;fill-opacity:0.265873;fill-rule:evenodd;stroke:#000000;stroke-width:0.033363"
       id="circle9"
       cx="81.754852"
       cy="-192.06718"
       transform="scale(1,-1)"
       r="2.9833186" />
    <circle
       style="opacity:1;fill:#ffffff;fill-opacity:0.265873;fill-rule:evenodd;stroke:#000000;stroke-width:0.033363"
       id="circle10"
       cx="444.26749"
       cy="-163.83276"
       transform="scale(1,-1)"
       r="2.9833186" />
  </g>
</svg>
