<?xml version="1.0" encoding="UTF-8" standalone="no"?>
<!-- Uploaded to: SVG Repo, www.svgrepo.com, Generator: SVG Repo Mixer Tools -->

<svg
   height="800px"
   width="800px"
   version="1.1"
   id="Layer_1"
   viewBox="0 0 512 512"
   xml:space="preserve"
   sodipodi:docname="santa-claus-christmas-svgrepo-com.svg"
   inkscape:version="1.3 (0e150ed6c4, 2023-07-21)"
   xmlns:inkscape="http://www.inkscape.org/namespaces/inkscape"
   xmlns:sodipodi="http://sodipodi.sourceforge.net/DTD/sodipodi-0.dtd"
   xmlns="http://www.w3.org/2000/svg"
   xmlns:svg="http://www.w3.org/2000/svg"><defs
   id="defs30">&#10;	&#10;	&#10;	&#10;	&#10;	&#10;	&#10;	&#10;	&#10;	&#10;	&#10;	&#10;	&#10;	&#10;	&#10;	&#10;	&#10;	&#10;	&#10;	&#10;	&#10;	&#10;	&#10;	&#10;	&#10;	&#10;	&#10;	&#10;	&#10;	&#10;</defs><sodipodi:namedview
   id="namedview30"
   pagecolor="#ffffff"
   bordercolor="#000000"
   borderopacity="0.25"
   inkscape:showpageshadow="2"
   inkscape:pageopacity="0.0"
   inkscape:pagecheckerboard="0"
   inkscape:deskcolor="#d1d1d1"
   inkscape:zoom="0.58875"
   inkscape:cx="400"
   inkscape:cy="400"
   inkscape:window-width="1280"
   inkscape:window-height="667"
   inkscape:window-x="-8"
   inkscape:window-y="-8"
   inkscape:window-maximized="1"
   inkscape:current-layer="Layer_1" />&#10;<path
   style="fill:#ffffff;fill-opacity:1"
   d="m 384,187.733 c 0,-25.6 16.213,-47.787 39.253,-56.32 l -58.88,-11.093 c -71.68,-12.8 -145.067,-12.8 -216.747,0 L 62.293,136.533 C 51.2,138.24 42.667,148.48 42.667,160.427 v 28.16 c 0,15.36 12.8,26.453 27.307,23.893 l 85.333,-15.36 c 66.56,-11.947 135.68,-11.947 202.24,0 l 29.013,5.12 C 384.853,197.973 384,192.853 384,187.733"
   id="path1" /><path
   style="fill:#ffffff"
   d="m 68.267,188.587 v -28.16 c 0,-11.947 8.533,-22.187 19.627,-23.893 l 86.187,-15.36 c 31.573,-5.973 63.147,-8.533 95.573,-9.387 -40.107,-0.853 -81.067,2.56 -121.173,9.387 l -86.187,15.36 C 51.2,138.24 42.667,148.48 42.667,160.427 v 28.16 c 0,15.36 12.8,26.453 27.307,23.893 l 11.947,-1.707 C 73.387,206.507 68.267,198.827 68.267,188.587"
   id="path2" /><path
   style="fill:#e0d489;fill-opacity:1"
   d="m 70.827,218.453 c -5.12,-3.413 -11.947,-5.12 -19.627,-5.12 -23.893,0 -42.667,18.773 -42.667,42.667 0,23.893 19.627,42.667 42.667,42.667 2.56,0 5.973,-0.853 8.533,-0.853 1.707,-34.134 7.68,-63.147 11.094,-79.361"
   id="path3" /><path
   style="fill:#ffffff"
   d="m 31.573,256 c 0,-19.627 13.653,-35.84 31.573,-40.96 -3.413,-0.853 -7.68,-1.707 -11.947,-1.707 -23.893,0 -42.667,18.773 -42.667,42.667 0,23.893 19.627,42.667 42.667,42.667 2.56,0 5.973,-0.853 8.533,-0.853 0,-0.853 0,-0.853 0,-1.707 C 43.52,290.133 31.573,274.773 31.573,256"
   id="path4" /><path
   style="fill:#e0d489;fill-opacity:1"
   d="m 489.813,225.28 c -10.24,12.8 -26.453,21.333 -43.52,22.187 2.56,14.507 4.267,31.573 5.12,50.347 2.56,0.853 5.973,0.853 8.533,0.853 23.893,0 42.667,-18.773 42.667,-42.667 0.854,-11.947 -4.266,-23.04 -12.8,-30.72"
   id="path5" /><path
   style="fill:#e0d489;fill-opacity:1"
   d="m 489.813,225.28 c -3.413,4.267 -7.68,7.68 -11.947,11.093 3.413,5.973 5.12,12.8 5.12,19.627 0,19.627 -13.653,35.84 -31.573,40.96 0,0 0,0 0,0.853 2.56,0.853 5.973,0.853 8.533,0.853 23.893,0 42.667,-18.773 42.667,-42.667 0.854,-11.946 -4.266,-23.039 -12.8,-30.719"
   id="path6" /><path
   style="fill:#e0d489;fill-opacity:1"
   d="m 109.653,278.613 c -1.707,4.267 -2.56,8.533 -2.56,13.653 0,24.747 23.893,46.08 52.907,47.787 20.48,0.853 38.4,-7.68 49.493,-20.48 10.24,-12.8 26.453,-21.333 44.373,-22.187 1.707,0 3.413,0 5.973,0 1.707,0 3.413,0 5.973,0 17.92,0.853 34.133,9.387 44.373,22.187 10.24,12.8 29.013,21.333 49.493,20.48 29.867,-0.853 53.76,-23.04 52.907,-47.787 0,-5.12 -0.853,-9.387 -2.56,-13.653 -8.533,-23.04 -15.36,-46.933 -17.92,-70.827 v 0 c -0.853,-2.56 -1.707,-5.12 -2.56,-6.827 l -29.013,-5.12 c -66.56,-11.947 -135.68,-11.947 -202.24,0 l -29.867,5.12 c -1.705,27.308 -9.385,52.908 -18.772,77.654"
   id="path7" /><path
   style="fill:#ffffff;fill-opacity:1"
   d="m 503.467,187.733 c 0,33.28 -26.453,59.733 -59.733,59.733 -33.28,0 -59.734,-26.453 -59.734,-59.733 0,-33.28 26.453,-59.733 59.733,-59.733 33.28,0 59.734,26.453 59.734,59.733"
   id="path8" /><path
   style="fill:#c9e4ed;fill-opacity:1"
   d="m 443.733,128 c -4.267,0 -8.533,0.853 -12.8,1.707 26.453,5.973 46.933,29.867 46.933,58.027 0,28.16 -20.48,52.053 -46.933,58.027 4.267,0.853 8.533,1.707 12.8,1.707 33.28,0 59.733,-26.453 59.733,-59.733 0,-33.28 -26.453,-59.735 -59.733,-59.735"
   id="path9" /><path
   style="display:inline;fill:#fffffd;fill-opacity:1"
   d="m 443.733,247.467 c -25.6,0 -46.933,-15.36 -55.467,-37.547 2.56,23.893 9.387,47.787 17.92,70.827 1.707,4.267 2.56,8.533 2.56,13.653 0,24.747 -23.893,46.08 -52.907,47.787 -20.48,0.853 -38.4,-7.68 -49.493,-20.48 -10.24,-12.8 -26.453,-21.333 -44.373,-22.187 -1.707,0 -3.413,0 -5.973,0 -2.56,0 -3.413,0 -5.973,0 -17.92,0.853 -34.133,9.387 -44.373,22.187 -10.24,12.8 -29.013,21.333 -49.493,20.48 -29.867,-0.853 -53.76,-23.04 -52.907,-47.787 0,-5.12 0.853,-9.387 2.56,-13.653 9.387,-24.747 16.213,-51.2 18.773,-76.8 l -52.053,9.387 c -9.387,35.84 -44.373,199.68 63.147,256 0,0 7.68,-10.24 7.68,-25.6 0,0 7.68,59.733 111.787,59.733 104.107,0 112.64,-59.733 112.64,-59.733 0,15.36 8.533,25.6 8.533,25.6 86.187,-45.227 80.213,-159.573 69.973,-221.867 -0.854,0 -1.707,0 -2.561,0"
   id="path10" /><path
   style="fill:#ffffff"
   d="m 98.133,221.013 3.413,-16.213 c 0,-1.707 0.853,-3.413 0.853,-5.12 l -29.867,21.333 c -9.387,36.693 -44.373,200.533 63.147,256.853 0,0 3.413,-5.12 5.12,-12.8 C 58.88,400.213 89.6,255.147 98.133,221.013"
   id="path11" /><path
   style="display:inline;fill:#c9e4ed;fill-opacity:1"
   d="m 410.453,238.933 c 0.853,0 1.707,17.067 2.56,17.067 9.387,57.173 15.36,158.72 -50.347,209.067 2.56,7.68 5.973,12.8 5.973,12.8 C 454.827,432.64 448.853,318.293 438.613,256 h -2.56"
   id="path12"
   sodipodi:nodetypes="cccccc" /><path
   style="fill:#ed0303;fill-opacity:1"
   d="m 443.733,128 c 5.973,0 11.093,0.853 16.213,2.56 C 452.267,95.573 382.293,8.533 264.533,8.533 153.6,8.533 98.986,108.373 87.893,131.413 L 148.48,120.32 c 71.68,-12.8 145.067,-12.8 216.747,0 l 58.88,11.093 c 5.973,-1.706 12.8,-3.413 19.626,-3.413"
   id="path13" /><path
   style="fill:#ffffff"
   d="M 285.013,5.12 C 280.746,5.12 275.626,4.267 271.36,4.267 159.573,5.12 104.96,104.96 93.867,128 l 29.013,-5.12 C 138.24,93.867 188.587,11.947 285.013,5.12"
   id="path14" /><g
   id="g16"
   transform="translate(1)">&#10;		<path
   style="fill:#db4d6c"
   d="m 280.6,264.533 c 0,9.387 -11.093,34.133 -25.6,34.133 -14.507,0 -25.6,-24.747 -25.6,-34.133 0,-9.387 11.093,-17.067 25.6,-17.067 14.507,0.001 25.6,7.681 25.6,17.067"
   id="path15" />&#10;		<path
   style="fill:#db4d6c"
   d="m 351.427,375.467 c -53.76,45.227 -139.947,45.227 -193.707,0 53.76,0 96.427,-16.213 96.427,-25.6 0.853,9.386 44.373,25.6 97.28,25.6"
   id="path16" />&#10;	</g><path
   d="m 256,418.133 c -36.693,0 -74.24,-11.947 -102.4,-35.84 -2.56,-2.56 -3.413,-5.973 -2.56,-9.387 0.853,-3.413 4.267,-5.973 7.68,-5.973 46.933,0 82.773,-12.8 88.747,-18.773 0.853,-3.413 4.267,-6.827 8.533,-6.827 4.267,0 7.68,2.56 8.533,6.827 5.973,5.973 40.96,18.773 88.747,18.773 3.413,0 6.827,2.56 7.68,5.973 0.853,3.413 0,6.827 -2.56,9.387 -28.16,23.894 -65.707,35.84 -102.4,35.84 z m -71.68,-34.986 c 43.52,24.747 99.84,24.747 143.36,0 -28.16,-2.56 -57.173,-9.387 -71.68,-19.627 -13.653,9.387 -43.52,16.213 -71.68,19.627 z"
   id="path17"
   style="display:inline" /><path
   d="m 256,392.533 c -20.48,0 -39.253,-5.973 -50.347,-15.36 -2.56,-1.707 -3.413,-5.12 -2.56,-8.533 0.853,-3.413 3.413,-5.973 6.827,-5.973 23.893,-5.12 35.84,-11.093 38.4,-13.653 0.853,-3.413 4.267,-6.827 8.533,-6.827 4.267,0 7.68,2.56 8.533,6.827 2.56,2.56 15.36,9.387 38.4,13.653 3.413,0.853 5.973,3.413 6.827,5.973 0.853,3.413 0,6.827 -2.56,8.533 -12.8,9.387 -31.573,15.36 -52.053,15.36 z m -20.48,-19.626 c 12.8,3.413 29.013,3.413 41.813,0 -7.68,-2.56 -15.36,-5.973 -20.48,-9.387 -5.973,3.413 -13.653,6.827 -21.333,9.387 z"
   id="path18" /><path
   d="m 256,469.333 v 0 c -17.92,0 -34.133,-8.533 -41.813,-21.333 -2.56,-4.267 -0.853,-9.387 3.413,-11.947 4.267,-2.56 9.387,-0.853 11.947,3.413 4.267,7.68 14.507,12.8 26.453,12.8 v 0 c 11.947,0 22.187,-5.12 27.307,-12.8 2.56,-4.267 7.68,-5.12 11.947,-2.56 4.267,2.56 5.12,7.68 2.56,11.947 -8.534,11.947 -23.894,20.48 -41.814,20.48 z"
   id="path19" /><path
   d="M 51.2,307.2 C 23.04,307.2 0,284.16 0,256 c 0,-28.16 23.04,-51.2 51.2,-51.2 7.68,0 16.213,1.707 23.893,5.973 l 5.973,3.413 -1.707,6.827 c -3.413,13.653 -9.387,43.52 -11.093,76.8 v 6.827 l -6.827,1.707 C 58.027,307.2 54.613,307.2 51.2,307.2 Z m 0,-85.333 c -18.773,0 -34.133,15.36 -34.133,34.133 0,18.773 15.36,34.133 34.987,34.133 1.707,-27.307 5.973,-51.2 9.387,-66.56 -3.414,-0.853 -6.828,-1.706 -10.241,-1.706 z"
   id="path20" /><path
   d="m 443.733,256 c -37.547,0 -68.267,-30.72 -68.267,-68.267 0,-37.547 30.72,-68.267 68.267,-68.267 37.547,0 68.267,30.721 68.267,68.267 C 512,225.279 481.28,256 443.733,256 Z m 0,-119.467 c -28.16,0 -51.2,23.04 -51.2,51.2 0,28.16 23.04,51.2 51.2,51.2 28.16,0 51.2,-23.04 51.2,-51.2 0,-28.16 -23.04,-51.2 -51.2,-51.2 z"
   id="path21" /><path
   d="m 460.8,307.2 c -4.267,0 -7.68,-0.853 -10.24,-0.853 l -6.827,-1.707 v -6.827 c -0.853,-15.36 -2.56,-32.427 -5.12,-49.493 l -2.56,-9.387 9.387,-0.853 c 14.507,-0.853 28.16,-7.68 37.547,-18.773 l 5.973,-6.827 6.827,5.973 c 10.24,9.387 16.213,23.04 16.213,36.693 0,29.014 -23.04,52.054 -51.2,52.054 z m -0.853,-17.067 v 0 c 19.627,0 34.987,-15.36 34.987,-34.133 0,-6.827 -1.707,-12.8 -5.12,-17.92 -9.387,8.533 -21.333,14.507 -33.28,17.067 1.706,11.946 2.559,23.893 3.413,34.986 z"
   id="path22"
   sodipodi:nodetypes="scccccccccsssssccs" /><path
   d="m 65.707,221.867 c -6.827,0 -14.507,-2.56 -19.627,-7.68 -7.68,-5.973 -11.947,-15.36 -11.947,-25.6 v -28.16 c 0,-16.213 11.093,-29.867 26.453,-32.427 l 86.187,-15.36 c 72.533,-13.653 146.773,-13.653 219.307,0 l 90.453,16.213 -29.867,11.093 c -20.48,7.68 -34.133,26.453 -34.133,47.787 0,4.267 0.853,8.533 1.707,12.8 l 3.413,12.8 -41.813,-7.68 c -65.707,-11.947 -133.12,-11.947 -199.68,0 l -85.333,15.36 c -0.854,0.854 -3.414,0.854 -5.12,0.854 z M 256,119.467 c -35.84,0 -71.68,3.413 -106.667,9.387 l -86.187,16.213 c -6.827,0.853 -11.947,7.68 -11.947,15.36 v 28.16 c 0,5.12 1.707,9.387 5.973,12.8 3.413,2.56 6.827,4.267 11.093,3.413 l 85.333,-15.36 c 68.267,-12.8 137.387,-12.8 205.653,0 l 17.067,3.413 c 0,-1.707 0,-2.56 0,-4.267 0,-20.48 9.387,-39.253 23.893,-52.053 l -36.693,-6.827 C 327.68,122.88 291.84,119.467 256,119.467 Z"
   id="path23" /><path
   d="M 72.533,143.36 80.213,128 C 90.453,106.667 147.626,0 264.533,0 388.267,0 459.947,90.453 468.48,128 l 3.413,13.653 -13.653,-4.267 c -10.24,-2.56 -21.333,-2.56 -31.573,0.853 l -2.56,0.853 L 362.667,128 C 291.84,115.2 220.16,115.2 149.334,128 Z M 256,102.4 c 36.693,0 73.387,3.413 110.08,10.24 l 57.173,10.24 c 7.68,-2.56 16.213,-3.413 23.893,-3.413 -18.773,-37.547 -82.773,-102.4 -182.613,-102.4 -89.6,0 -140.8,69.12 -161.28,103.253 l 42.667,-7.68 C 182.613,105.813 219.307,102.4 256,102.4 Z"
   id="path24" /><path
   d="m 255.147,512 c -66.56,0 -96.427,-23.04 -110.08,-41.813 -1.707,2.56 -2.56,4.267 -2.56,4.267 -2.56,3.413 -6.827,4.267 -11.093,2.56 C 17.92,417.28 55.467,244.907 64,210.773 64.853,207.36 67.413,204.8 70.827,204.8 l 52.053,-9.387 c 2.56,-0.853 5.12,0 6.827,1.707 1.707,1.707 3.413,4.267 2.56,6.827 -1.707,24.747 -8.533,50.347 -18.773,79.36 -1.707,3.413 -1.707,6.827 -1.707,11.093 0,19.627 20.48,37.547 45.227,38.4 17.067,0.853 33.28,-5.973 42.667,-17.92 11.947,-15.36 30.72,-24.747 51.2,-24.747 4.267,0 7.68,0 11.947,0 20.48,0.853 38.4,9.387 51.2,24.747 9.387,11.947 25.6,17.92 42.667,17.92 24.747,-0.853 45.227,-18.773 45.227,-38.4 0,-3.413 -0.853,-7.68 -1.707,-11.093 -9.387,-25.6 -16.213,-49.493 -17.92,-72.533 -0.853,-4.267 2.56,-8.533 6.827,-9.387 4.267,-0.853 8.533,0.853 10.24,5.12 7.68,19.627 26.453,32.427 47.787,32.427 h 2.56 c 4.267,0 7.68,2.56 8.533,6.827 11.093,65.707 16.213,183.467 -74.24,231.253 -3.413,1.707 -8.533,0.853 -11.093,-2.56 0,0 -1.707,-2.56 -3.413,-5.973 C 352.427,488.107 322.56,512 255.147,512 Z M 143.36,435.2 c 4.267,0 7.68,3.413 8.533,7.68 0,1.707 8.533,52.053 103.253,52.053 96.427,0 104.107,-52.053 104.96,-52.053 0.853,-4.267 4.267,-7.68 9.387,-7.68 4.267,0 7.68,4.267 7.68,8.533 0,5.973 1.707,10.24 2.56,13.653 70.827,-43.52 68.267,-141.653 59.733,-202.24 -13.653,-0.853 -25.6,-5.973 -35.84,-13.653 2.56,11.093 6.827,23.04 11.093,34.133 1.707,5.12 3.413,11.093 3.413,17.067 0,29.867 -27.307,54.613 -61.44,56.32 -23.04,0.853 -43.52,-7.68 -56.32,-23.893 -9.387,-11.093 -23.04,-17.92 -38.4,-18.773 -3.413,0 -7.68,0 -11.093,0 -15.36,0 -29.013,6.827 -38.4,18.773 -12.8,16.213 -34.133,24.747 -56.32,23.893 -34.133,-1.707 -61.44,-26.453 -61.44,-56.32 0,-5.973 0.853,-11.093 3.413,-16.213 8.533,-23.04 14.507,-43.52 17.067,-64 l -34.987,6.827 c -9.387,40.107 -35.84,182.613 52.907,237.227 0.853,-3.413 2.56,-8.533 2.56,-13.653 -0.852,-3.414 2.561,-7.681 7.681,-7.681 -0.853,0 0,0 0,0 z"
   id="path25"
   style="display:inline" /><path
   d="m 443.733,136.533 c -2.56,0 -4.267,-0.853 -5.973,-2.56 -0.853,-0.853 -46.933,-48.64 -104.96,-48.64 -5.12,0 -8.533,-3.413 -8.533,-8.533 0,-5.12 3.413,-8.533 8.533,-8.533 65.707,0 115.2,52.053 116.907,53.76 3.413,3.413 3.413,8.533 0,11.947 -1.707,1.706 -4.267,2.559 -5.974,2.559 z"
   id="path26" /><path
   d="m 256,307.2 c -20.48,0 -34.133,-30.72 -34.133,-42.667 0,-14.507 15.36,-25.6 34.133,-25.6 18.773,0 34.133,11.093 34.133,25.6 0,11.947 -13.653,42.667 -34.133,42.667 z m 0,-51.2 c -10.24,0 -17.067,5.12 -17.067,8.533 0,6.827 9.387,25.6 17.067,25.6 7.68,0 17.067,-18.773 17.067,-25.6 C 273.067,261.12 266.24,256 256,256 Z"
   id="path27" /><path
   d="m 196.267,256 c -5.12,0 -8.533,-3.413 -8.533,-8.533 0,-4.267 -5.973,-8.533 -12.8,-8.533 -6.827,0 -12.8,4.267 -12.8,8.533 0,5.12 -3.413,8.533 -8.533,8.533 -5.12,0 -8.533,-3.413 -8.533,-8.533 0,-14.507 13.653,-25.6 29.867,-25.6 16.214,0 29.867,11.093 29.867,25.6 -0.002,5.12 -3.415,8.533 -8.535,8.533 z"
   id="path28" /><path
   d="m 358.4,256 c -5.12,0 -8.533,-3.413 -8.533,-8.533 0,-4.267 -5.973,-8.533 -12.8,-8.533 -6.827,0 -12.8,4.267 -12.8,8.533 0,5.12 -3.413,8.533 -8.533,8.533 -5.12,0 -8.533,-3.413 -8.533,-8.533 0,-14.507 13.653,-25.6 29.867,-25.6 16.214,0 29.867,11.093 29.867,25.6 -0.002,5.12 -3.415,8.533 -8.535,8.533 z"
   id="path29" /><path
   d="m 159.573,349.867 c -0.853,0 -1.707,0 -3.413,0 -34.133,-1.707 -61.44,-26.453 -61.44,-56.32 0,-5.973 0.853,-11.093 3.413,-17.067 v 0 c 10.24,-27.307 16.213,-52.053 17.92,-75.093 0,-4.267 3.413,-6.827 6.827,-7.68 l 29.867,-5.12 c 68.267,-12.8 137.387,-12.8 205.653,0 l 29.013,5.12 c 3.413,0.853 5.973,3.413 6.827,5.973 0.853,1.707 0.853,4.267 1.707,5.973 0.853,0.853 0.853,2.56 0.853,3.413 2.56,21.333 7.68,42.667 17.067,66.56 1.707,5.12 3.413,11.093 3.413,17.067 0,29.867 -27.307,54.613 -61.44,56.32 -23.04,0.853 -43.52,-7.68 -56.32,-23.893 -9.387,-11.093 -23.04,-17.92 -38.4,-18.773 -3.413,0 -7.68,0 -11.093,0 -15.36,0 -29.013,6.827 -38.4,18.773 -11.094,16.213 -30.72,24.747 -52.054,24.747 z M 256,290.133 c 1.707,0 4.267,0 5.973,0 20.48,0.853 38.4,9.387 51.2,24.747 9.387,11.947 25.6,17.92 42.667,17.92 24.747,-0.853 45.227,-18.773 45.227,-38.4 0,-3.413 -0.853,-7.68 -1.707,-11.093 -9.387,-25.6 -15.36,-48.64 -17.92,-71.68 0,-0.853 0,-0.853 -0.853,-1.707 l -23.893,-4.267 c -65.707,-11.947 -133.12,-11.947 -199.68,0 l -23.893,4.267 c -2.56,23.04 -8.533,46.933 -18.773,72.533 v 0 c -1.707,3.413 -1.707,6.827 -1.707,11.093 0,19.627 20.48,37.547 45.227,38.4 17.067,0.853 33.28,-5.973 42.667,-17.92 11.947,-15.36 30.72,-24.747 51.2,-24.747 -0.002,0.854 2.558,0.854 4.265,0.854 z m -150.187,-10.24 z"
   id="path30" />&#10;</svg>
